<svg width="400" height="400" viewBox="0 0 400 400" fill="none" xmlns="http://www.w3.org/2000/svg">
  <rect width="400" height="400" fill="#E5F3FF"/>
  <circle cx="200" cy="200" r="150" fill="#3B82F6" opacity="0.1"/>
  <circle cx="200" cy="200" r="100" fill="#3B82F6" opacity="0.2"/>
  <circle cx="200" cy="200" r="50" fill="#3B82F6" opacity="0.3"/>
  
  <!-- Document icon -->
  <rect x="150" y="120" width="100" height="120" rx="8" fill="#3B82F6" opacity="0.8"/>
  <rect x="170" y="140" width="60" height="4" rx="2" fill="white"/>
  <rect x="170" y="150" width="40" height="4" rx="2" fill="white"/>
  <rect x="170" y="160" width="50" height="4" rx="2" fill="white"/>
  <rect x="170" y="170" width="35" height="4" rx="2" fill="white"/>
  <rect x="170" y="180" width="45" height="4" rx="2" fill="white"/>
  <rect x="170" y="190" width="30" height="4" rx="2" fill="white"/>
  
  <!-- Calendar elements -->
  <rect x="180" y="250" width="40" height="30" rx="4" fill="#10B981" opacity="0.8"/>
  <rect x="185" y="255" width="30" height="4" rx="2" fill="white"/>
  <rect x="185" y="265" width="8" height="8" rx="2" fill="white"/>
  <rect x="200" y="265" width="8" height="8" rx="2" fill="white"/>
  <rect x="215" y="265" width="8" height="8" rx="2" fill="white"/>
  
  <!-- Floating elements -->
  <circle cx="120" cy="150" r="8" fill="#3B82F6" opacity="0.6"/>
  <circle cx="280" cy="180" r="6" fill="#10B981" opacity="0.6"/>
  <circle cx="100" cy="280" r="10" fill="#F59E0B" opacity="0.6"/>
  
  <text x="200" y="350" text-anchor="middle" fill="#1F2937" font-family="Arial, sans-serif" font-size="16" font-weight="bold">SiteAI Platform</text>
</svg>
