<svg width="400" height="400" viewBox="0 0 400 400" fill="none" xmlns="http://www.w3.org/2000/svg">
  <rect width="400" height="400" fill="#F3E8FF"/>
  
  <!-- Lightbulb icon -->
  <circle cx="200" cy="120" r="50" fill="#8B5CF6"/>
  <path d="M180 100c0-11.046 8.954-20 20-20s20 8.954 20 20c0 5.523-2.239 10.524-5.857 14.142C210.524 117.761 205.523 120 200 120s-10.524-2.239-14.143-5.858C182.239 110.524 180 105.523 180 100z" fill="#8B5CF6"/>
  <rect x="195" y="170" width="10" height="20" fill="#8B5CF6"/>
  
  <!-- Task prompt cards -->
  <rect x="80" y="220" width="100" height="80" rx="8" fill="white" stroke="#E5E7EB" stroke-width="2"/>
  <text x="130" y="240" text-anchor="middle" fill="#8B5CF6" font-family="Arial, sans-serif" font-size="10" font-weight="bold">Prepare Supplies</text>
  <text x="130" y="255" text-anchor="middle" fill="#6B7280" font-family="Arial, sans-serif" font-size="8">Need: Syringes, Tubes</text>
  <text x="130" y="270" text-anchor="middle" fill="#6B7280" font-family="Arial, sans-serif" font-size="8">Due: Before 2 PM</text>
  
  <rect x="200" y="220" width="100" height="80" rx="8" fill="white" stroke="#E5E7EB" stroke-width="2"/>
  <text x="250" y="240" text-anchor="middle" fill="#8B5CF6" font-family="Arial, sans-serif" font-size="10" font-weight="bold">Review Protocol</text>
  <text x="250" y="255" text-anchor="middle" fill="#6B7280" font-family="Arial, sans-serif" font-size="8">Section: 4.2.1</text>
  <text x="250" y="270" text-anchor="middle" fill="#6B7280" font-family="Arial, sans-serif" font-size="8">Priority: High</text>
  
  <rect x="140" y="320" width="100" height="60" rx="8" fill="white" stroke="#E5E7EB" stroke-width="2"/>
  <text x="190" y="340" text-anchor="middle" fill="#8B5CF6" font-family="Arial, sans-serif" font-size="10" font-weight="bold">Update Database</text>
  <text x="190" y="355" text-anchor="middle" fill="#6B7280" font-family="Arial, sans-serif" font-size="8">Patient: Smith, J.</text>
  
  <!-- Floating elements -->
  <circle cx="120" cy="180" r="6" fill="#8B5CF6" opacity="0.6"/>
  <circle cx="280" cy="160" r="8" fill="#10B981" opacity="0.6"/>
  <circle cx="100" cy="300" r="4" fill="#F59E0B" opacity="0.6"/>
  
  <text x="200" y="400" text-anchor="middle" fill="#1F2937" font-family="Arial, sans-serif" font-size="14" font-weight="bold">Task Prompts</text>
</svg>
